<svg width="16" height="17" viewBox="0 0 16 17" fill="none" xmlns="http://www.w3.org/2000/svg">
<path d="M7.904 6.212C8.928 6.26 9.192 7.132 9.208 7.54H10.64C10.576 5.956 9.448 4.988 7.88 4.988C6.112 4.988 4.8 6.1 4.8 8.612C4.8 10.164 5.544 12.004 7.872 12.004C9.648 12.004 10.6 10.684 10.624 9.644H9.192C9.168 10.116 8.832 10.748 7.888 10.796C6.84 10.764 6.4 9.948 6.4 8.612C6.4 6.3 7.424 6.228 7.904 6.212ZM8 0.5C3.584 0.5 0 4.084 0 8.5C0 12.916 3.584 16.5 8 16.5C12.416 16.5 16 12.916 16 8.5C16 4.084 12.416 0.5 8 0.5ZM8 14.9C4.472 14.9 1.6 12.028 1.6 8.5C1.6 4.972 4.472 2.1 8 2.1C11.528 2.1 14.4 4.972 14.4 8.5C14.4 12.028 11.528 14.9 8 14.9Z" fill="white"/>
</svg>
