<svg width="25" height="26" viewBox="0 0 25 26" fill="none" xmlns="http://www.w3.org/2000/svg">
<mask id="mask0_450_1004" style="mask-type:luminance" maskUnits="userSpaceOnUse" x="0" y="0" width="25" height="26">
<path d="M12.7914 23.2082C14.1322 23.21 15.4602 22.9467 16.6989 22.4336C17.9377 21.9205 19.0629 21.1676 20.0097 20.2182C20.9591 19.2713 21.712 18.1462 22.2251 16.9074C22.7382 15.6687 23.0015 14.3407 22.9997 12.9999C23.0015 11.659 22.7382 10.3311 22.2251 9.09233C21.7119 7.85357 20.9591 6.72842 20.0097 5.78154C19.0629 4.83218 17.9377 4.0793 16.6989 3.56617C15.4602 3.05304 14.1322 2.78978 12.7914 2.79151C11.4506 2.7898 10.1226 3.05308 8.88384 3.56621C7.64508 4.07933 6.51993 4.8322 5.57305 5.78154C4.6237 6.72842 3.87084 7.85357 3.35771 9.09233C2.84458 10.3311 2.58131 11.659 2.58302 12.9999C2.58128 14.3407 2.84454 15.6687 3.35767 16.9074C3.8708 18.1462 4.62368 19.2713 5.57305 20.2182C6.51993 21.1676 7.64508 21.9204 8.88384 22.4335C10.1226 22.9467 11.4506 23.21 12.7914 23.2082Z" fill="white" stroke="white" stroke-width="4" stroke-linejoin="round"/>
<path fill-rule="evenodd" clip-rule="evenodd" d="M12.7907 19.6353C13.1291 19.6353 13.4537 19.5009 13.693 19.2616C13.9323 19.0223 14.0667 18.6977 14.0667 18.3593C14.0667 18.0209 13.9323 17.6963 13.693 17.457C13.4537 17.2177 13.1291 17.0833 12.7907 17.0833C12.4523 17.0833 12.1277 17.2177 11.8884 17.457C11.6491 17.6963 11.5146 18.0209 11.5146 18.3593C11.5146 18.6977 11.6491 19.0223 11.8884 19.2616C12.1277 19.5009 12.4523 19.6353 12.7907 19.6353Z" fill="black"/>
<path d="M12.792 6.875V15.0417" stroke="black" stroke-width="4" stroke-linecap="round" stroke-linejoin="round"/>
</mask>
<g mask="url(#mask0_450_1004)">
<path d="M0.541992 0.75H25.0421V25.2501H0.541992V0.75Z" fill="#D41D1D"/>
</g>
</svg>
