<svg width="718" height="728" viewBox="0 0 718 728" fill="none" xmlns="http://www.w3.org/2000/svg">
<g clip-path="url(#clip0_67_987)">
<mask id="mask0_67_987" style="mask-type:luminance" maskUnits="userSpaceOnUse" x="584" y="583" width="145" height="145">
<path d="M729 583H584V728H729V583Z" fill="white"/>
</mask>
<g mask="url(#mask0_67_987)">
<path fill-rule="evenodd" clip-rule="evenodd" d="M656.483 655.5C616.45 655.491 584 623.035 584 583L729 583C729 623.035 696.55 655.491 656.517 655.5C696.55 655.509 729 687.965 729 728H584C584 687.965 616.45 655.509 656.483 655.5Z" fill="#D41D1D"/>
</g>
</g>
<g clip-path="url(#clip1_67_987)">
<mask id="mask1_67_987" style="mask-type:luminance" maskUnits="userSpaceOnUse" x="436" y="583" width="148" height="145">
<path d="M436 583V728H584V583H436Z" fill="white"/>
</mask>
<g mask="url(#mask1_67_987)">
<path fill-rule="evenodd" clip-rule="evenodd" d="M510 655.517C509.99 695.55 476.863 728 436 728L436 583C476.863 583 509.99 615.45 510 655.483C510.01 615.45 543.137 583 584 583V728C543.137 728 510.01 695.55 510 655.517Z" fill="#FF6B6B"/>
</g>
</g>
<g clip-path="url(#clip2_67_987)">
<mask id="mask2_67_987" style="mask-type:luminance" maskUnits="userSpaceOnUse" x="292" y="583" width="144" height="145">
<path d="M436 583H292V728H436V583Z" fill="white"/>
</mask>
<g mask="url(#mask2_67_987)">
<path fill-rule="evenodd" clip-rule="evenodd" d="M363.983 655.5C324.226 655.491 292 623.035 292 583L436 583C436 623.035 403.774 655.491 364.017 655.5C403.774 655.509 436 687.965 436 728H292C292 687.965 324.226 655.509 363.983 655.5Z" fill="#014E60"/>
</g>
</g>
<g clip-path="url(#clip3_67_987)">
<mask id="mask3_67_987" style="mask-type:luminance" maskUnits="userSpaceOnUse" x="584" y="436" width="145" height="147">
<path d="M584 436V583H729V436H584Z" fill="white"/>
</mask>
<g mask="url(#mask3_67_987)">
<path fill-rule="evenodd" clip-rule="evenodd" d="M656.5 509.518C656.491 550.102 624.035 583 584 583L584 436C624.035 436 656.491 468.897 656.5 509.482C656.509 468.897 688.965 436 729 436V583C688.965 583 656.509 550.102 656.5 509.518Z" fill="#014E60"/>
</g>
</g>
<g clip-path="url(#clip4_67_987)">
<mask id="mask4_67_987" style="mask-type:luminance" maskUnits="userSpaceOnUse" x="437" y="436" width="147" height="147">
<path d="M584 436H437V583H584V436Z" fill="white"/>
</mask>
<g mask="url(#mask4_67_987)">
<path fill-rule="evenodd" clip-rule="evenodd" d="M510.482 509.5C469.898 509.49 437 476.587 437 436L584 436C584 476.587 551.103 509.49 510.518 509.5C551.103 509.51 584 542.413 584 583H437C437 542.413 469.898 509.51 510.482 509.5Z" fill="#D41D1D"/>
</g>
</g>
<g clip-path="url(#clip5_67_987)">
<mask id="mask5_67_987" style="mask-type:luminance" maskUnits="userSpaceOnUse" x="292" y="436" width="144" height="147">
<path d="M292 436V583H436V436H292Z" fill="white"/>
</mask>
<g mask="url(#mask5_67_987)">
<path fill-rule="evenodd" clip-rule="evenodd" d="M364 509.518C363.991 550.102 331.759 583 292 583L292 436C331.759 436 363.991 468.897 364 509.482C364.009 468.897 396.242 436 436 436V583C396.242 583 364.009 550.102 364 509.518Z" fill="white"/>
</g>
</g>
<g clip-path="url(#clip6_67_987)">
<mask id="mask6_67_987" style="mask-type:luminance" maskUnits="userSpaceOnUse" x="437" y="292" width="147" height="144">
<path d="M437 292V436H584V292H437Z" fill="white"/>
</mask>
<g mask="url(#mask6_67_987)">
<path fill-rule="evenodd" clip-rule="evenodd" d="M510.5 364.017C510.49 403.774 477.587 436 437 436L437 292C477.587 292 510.49 324.226 510.5 363.983C510.51 324.226 543.413 292 584 292V436C543.413 436 510.51 403.774 510.5 364.017Z" fill="#FF6B6B"/>
</g>
</g>
<g clip-path="url(#clip7_67_987)">
<mask id="mask7_67_987" style="mask-type:luminance" maskUnits="userSpaceOnUse" x="584" y="145" width="145" height="147">
<path d="M584 145V292H729V145H584Z" fill="white"/>
</mask>
<g mask="url(#mask7_67_987)">
<path fill-rule="evenodd" clip-rule="evenodd" d="M656.5 218.518C656.491 259.102 624.035 292 584 292L584 145C624.035 145 656.491 177.897 656.5 218.482C656.509 177.897 688.965 145 729 145V292C688.965 292 656.509 259.102 656.5 218.518Z" fill="#D41D1D"/>
</g>
</g>
<g clip-path="url(#clip8_67_987)">
<mask id="mask8_67_987" style="mask-type:luminance" maskUnits="userSpaceOnUse" x="145" y="436" width="147" height="147">
<path d="M292 436H145V583H292V436Z" fill="white"/>
</mask>
<g mask="url(#mask8_67_987)">
<path fill-rule="evenodd" clip-rule="evenodd" d="M218.482 509.5C177.898 509.49 145 476.587 145 436L292 436C292 476.587 259.103 509.49 218.518 509.5C259.103 509.51 292 542.413 292 583H145C145 542.413 177.898 509.51 218.482 509.5Z" fill="#FF6B6B"/>
</g>
</g>
<g clip-path="url(#clip9_67_987)">
<mask id="mask9_67_987" style="mask-type:luminance" maskUnits="userSpaceOnUse" x="292" y="292" width="144" height="144">
<path d="M436 292H292V436H436V292Z" fill="white"/>
</mask>
<g mask="url(#mask9_67_987)">
<path fill-rule="evenodd" clip-rule="evenodd" d="M363.983 364C324.226 363.991 292 331.759 292 292L436 292C436 331.759 403.774 363.991 364.017 364C403.774 364.009 436 396.242 436 436H292C292 396.242 324.226 364.009 363.983 364Z" fill="#014E60"/>
</g>
</g>
<g clip-path="url(#clip10_67_987)">
<mask id="mask10_67_987" style="mask-type:luminance" maskUnits="userSpaceOnUse" x="584" y="292" width="145" height="144">
<path d="M729 292H584V436H729V292Z" fill="white"/>
</mask>
<g mask="url(#mask10_67_987)">
<path fill-rule="evenodd" clip-rule="evenodd" d="M656.483 364C616.45 363.991 584 331.759 584 292L729 292C729 331.759 696.55 363.991 656.517 364C696.55 364.009 729 396.242 729 436H584C584 396.242 616.45 364.009 656.483 364Z" fill="white"/>
</g>
</g>
<g clip-path="url(#clip11_67_987)">
<mask id="mask11_67_987" style="mask-type:luminance" maskUnits="userSpaceOnUse" x="437" y="145" width="147" height="147">
<path d="M584 145H437V292H584V145Z" fill="white"/>
</mask>
<g mask="url(#mask11_67_987)">
<path fill-rule="evenodd" clip-rule="evenodd" d="M510.482 218.5C469.898 218.49 437 185.587 437 145L584 145C584 185.587 551.103 218.49 510.518 218.5C551.103 218.51 584 251.413 584 292H437C437 251.413 469.898 218.51 510.482 218.5Z" fill="#014E60"/>
</g>
</g>
<g clip-path="url(#clip12_67_987)">
<mask id="mask12_67_987" style="mask-type:luminance" maskUnits="userSpaceOnUse" x="584" y="0" width="145" height="145">
<path d="M729 0L584 0V145H729V0Z" fill="white"/>
</mask>
<g mask="url(#mask12_67_987)">
<path fill-rule="evenodd" clip-rule="evenodd" d="M656.483 72.5C616.45 72.4906 584 40.0348 584 1.26763e-05L729 0C729 40.0348 696.55 72.4906 656.517 72.5C696.55 72.5094 729 104.965 729 145H584C584 104.965 616.45 72.5094 656.483 72.5Z" fill="#FF6B6B"/>
</g>
</g>
<g clip-path="url(#clip13_67_987)">
<mask id="mask13_67_987" style="mask-type:luminance" maskUnits="userSpaceOnUse" x="145" y="583" width="147" height="145">
<path d="M145 583V728H292V583H145Z" fill="white"/>
</mask>
<g mask="url(#mask13_67_987)">
<path fill-rule="evenodd" clip-rule="evenodd" d="M218.5 655.517C218.49 695.55 185.587 728 145 728L145 583C185.587 583 218.49 615.45 218.5 655.483C218.51 615.45 251.413 583 292 583V728C251.413 728 218.51 695.55 218.5 655.517Z" fill="white"/>
</g>
</g>
<g clip-path="url(#clip14_67_987)">
<mask id="mask14_67_987" style="mask-type:luminance" maskUnits="userSpaceOnUse" x="0" y="583" width="145" height="145">
<path d="M145 583H0L0 728H145V583Z" fill="white"/>
</mask>
<g mask="url(#mask14_67_987)">
<path fill-rule="evenodd" clip-rule="evenodd" d="M72.4825 655.5C32.4499 655.491 3.49995e-06 623.035 0 583L145 583C145 623.035 112.55 655.491 72.5174 655.5C112.55 655.509 145 687.965 145 728H6.33815e-06C6.33815e-06 687.965 32.4499 655.509 72.4825 655.5Z" fill="#D41D1D"/>
</g>
</g>
<defs>
<clipPath id="clip0_67_987">
<rect width="145" height="145" fill="white" transform="translate(584 583)"/>
</clipPath>
<clipPath id="clip1_67_987">
<rect width="145" height="148" fill="white" transform="matrix(0 -1 1 0 436 728)"/>
</clipPath>
<clipPath id="clip2_67_987">
<rect width="144" height="145" fill="white" transform="translate(292 583)"/>
</clipPath>
<clipPath id="clip3_67_987">
<rect width="147" height="145" fill="white" transform="matrix(0 -1 1 0 584 583)"/>
</clipPath>
<clipPath id="clip4_67_987">
<rect width="147" height="147" fill="white" transform="translate(437 436)"/>
</clipPath>
<clipPath id="clip5_67_987">
<rect width="147" height="144" fill="white" transform="matrix(0 -1 1 0 292 583)"/>
</clipPath>
<clipPath id="clip6_67_987">
<rect width="144" height="147" fill="white" transform="matrix(0 -1 1 0 437 436)"/>
</clipPath>
<clipPath id="clip7_67_987">
<rect width="147" height="145" fill="white" transform="matrix(0 -1 1 0 584 292)"/>
</clipPath>
<clipPath id="clip8_67_987">
<rect width="147" height="147" fill="white" transform="translate(145 436)"/>
</clipPath>
<clipPath id="clip9_67_987">
<rect width="144" height="144" fill="white" transform="translate(292 292)"/>
</clipPath>
<clipPath id="clip10_67_987">
<rect width="145" height="144" fill="white" transform="translate(584 292)"/>
</clipPath>
<clipPath id="clip11_67_987">
<rect width="147" height="147" fill="white" transform="translate(437 145)"/>
</clipPath>
<clipPath id="clip12_67_987">
<rect width="145" height="145" fill="white" transform="translate(584)"/>
</clipPath>
<clipPath id="clip13_67_987">
<rect width="145" height="147" fill="white" transform="matrix(0 -1 1 0 145 728)"/>
</clipPath>
<clipPath id="clip14_67_987">
<rect width="145" height="145" fill="white" transform="translate(0 583)"/>
</clipPath>
</defs>
</svg>
