<svg width="24" height="30" viewBox="0 0 24 30" fill="none" xmlns="http://www.w3.org/2000/svg">
<path d="M15 0H3C2.20435 0 1.44129 0.313891 0.87868 0.87262C0.31607 1.43135 0 2.18915 0 2.97931V26.8138C0 27.604 0.31607 28.3618 0.87868 28.9205C1.44129 29.4792 2.20435 29.7931 3 29.7931H21C21.7956 29.7931 22.5587 29.4792 23.1213 28.9205C23.6839 28.3618 24 27.604 24 26.8138V8.93793L15 0ZM8.247 21.1382C7.7835 21.5702 7.0995 21.7639 6.303 21.7639C6.14856 21.7655 5.99419 21.7566 5.841 21.737V23.8613H4.5V17.998C5.10518 17.9084 5.71668 17.8675 6.3285 17.8759C7.164 17.8759 7.758 18.0338 8.1585 18.3511C8.5395 18.652 8.7975 19.145 8.7975 19.726C8.796 20.31 8.601 20.803 8.247 21.1382ZM13.9575 23.1567C13.3275 23.6766 12.369 23.9239 11.1975 23.9239C10.4955 23.9239 9.999 23.8792 9.6615 23.8345V17.9995C10.2669 17.9118 10.8782 17.8704 11.49 17.8759C12.6255 17.8759 13.3635 18.0785 13.9395 18.5105C14.562 18.9693 14.952 19.7007 14.952 20.7509C14.952 21.8875 14.5335 22.6726 13.9575 23.1567ZM19.5 19.0229H17.202V20.38H19.35V21.4734H17.202V23.8628H15.843V17.9206H19.5V19.0229ZM15 10.4276H13.5V2.97931L21 10.4276H15Z" fill="#D41D1D"/>
<path d="M6.36486 19.0347C6.08199 19.0347 5.89136 19.0597 5.79297 19.0848V20.7241C5.90981 20.7492 6.05585 20.7561 6.25725 20.7561C6.99363 20.7561 7.44715 20.4194 7.44715 19.8502C7.44715 19.3408 7.05667 19.0347 6.36486 19.0347ZM11.7256 19.0514C11.4181 19.0514 11.2183 19.0764 11.0999 19.1015V22.7337C11.2183 22.7587 11.4089 22.7587 11.5811 22.7587C12.8371 22.7671 13.655 22.1408 13.655 20.816C13.6642 19.6609 12.9186 19.0514 11.7256 19.0514Z" fill="#D41D1D"/>
</svg>
